<?xml version="1.0" encoding="utf-8"?>
<!-- Generator: Adobe Illustrator 21.0.0, SVG Export Plug-In . SVG Version: 6.00 Build 0)  -->
<svg version="1.1" id="Livello_1" xmlns="http://www.w3.org/2000/svg" xmlns:xlink="http://www.w3.org/1999/xlink" x="0px" y="0px"
	 viewBox="0 0 196 100" enable-background="new 0 0 196 100" xml:space="preserve">
<g>
	<path fill="#E76013" d="M177.9,12.3c-9.3-8.5-18.8-13.2-21.3-10.5c-2.5,2.7,3.1,11.8,12.4,20.3c9.3,8.5,18.8,13.2,21.3,10.5
		C192.7,29.9,187.2,20.8,177.9,12.3"/>
	<path fill="#E76013" d="M192.3,14.9c-3.1-5.8-6.6-9.3-7.9-7.8c-1.3,1.5,0.2,7.4,3.3,13.2c3.1,5.8,6.6,9.3,7.9,7.8
		C196.8,26.7,195.3,20.7,192.3,14.9"/>
	<path fill="#1C3E79" d="M1.9,69.3l19.4,0c0.3,0,0.6-0.1,0.9-0.4c0.3-0.3,0.4-0.5,0.4-0.9l0-2.9c0-0.3-0.1-0.6-0.4-0.9
		c-0.3-0.3-0.5-0.4-0.9-0.4l-12.8,0l0-22.4c0-0.8,0.1-1.4,0.3-1.6c0.2-0.2,0.6-0.4,1.2-0.4l59.5,0.1c0.6,0,1,0.1,1.2,0.4
		c0.2,0.3,0.3,0.8,0.3,1.7l0,5.7l-14.9,0c-0.3,0-0.6,0.1-0.9,0.4c-0.3,0.3-0.4,0.5-0.4,0.9l0,2.9c0,0.3,0.1,0.6,0.4,0.9
		c0.3,0.3,0.5,0.4,0.9,0.4l21.5,0c0.3,0,0.6-0.1,0.9-0.4c0.3-0.3,0.4-0.6,0.4-0.9l0-8.4c0-1.7-0.1-3.2-0.5-4.3
		c-0.3-1.1-0.8-2.1-1.5-2.8c-0.7-0.7-1.6-1.2-2.8-1.5c-1.2-0.3-2.6-0.4-4.2-0.5L9.6,34c-1.6,0-3.1,0.1-4.2,0.4
		c-1.2,0.3-2.1,0.8-2.8,1.5c-0.7,0.7-1.2,1.6-1.5,2.8c-0.3,1.1-0.5,2.6-0.5,4.3L0.6,68c0,0.3,0.1,0.6,0.4,0.9
		C1.2,69.1,1.5,69.3,1.9,69.3"/>
	<path fill="#1C3E79" d="M34.8,43.4l-5.4,0c-0.3,0-0.6,0.2-0.9,0.5c-0.3,0.3-0.4,0.6-0.4,1L28,74.3c0,0.8-0.1,1.4-0.3,1.6
		c-0.2,0.3-0.6,0.4-1.2,0.4L1.3,76.3c-0.3,0-0.6,0.1-0.9,0.4c-0.3,0.3-0.4,0.5-0.4,0.9L0,80.5c0,0.3,0.1,0.6,0.4,0.9
		c0.3,0.3,0.6,0.4,0.9,0.4l25.6,0.1c1.6,0,3-0.1,4.2-0.4c1.2-0.3,2.1-0.8,2.8-1.5c0.7-0.7,1.2-1.6,1.5-2.7c0.3-1.1,0.5-2.6,0.5-4.3
		L36,44.9c0-0.3-0.1-0.7-0.4-1C35.4,43.6,35.1,43.4,34.8,43.4"/>
	<path fill="#1C3E79" d="M76.7,64l-25.4-0.1c-0.6,0-1-0.1-1.2-0.4c-0.2-0.3-0.3-0.8-0.3-1.6l0-17.2c0-0.3-0.1-0.7-0.4-1
		c-0.2-0.3-0.5-0.5-0.9-0.5l-5.3,0c-0.3,0-0.6,0.2-0.9,0.5c-0.3,0.3-0.4,0.6-0.4,1l0,15.6c0,1.7,0.2,3.2,0.5,4.3
		c0.3,1.1,0.8,2.1,1.5,2.8c0.7,0.7,1.6,1.2,2.8,1.5c1.2,0.3,2.6,0.5,4.2,0.5l25.8,0.1c0.3,0,0.6-0.1,0.9-0.4
		c0.2-0.3,0.4-0.5,0.4-0.9l0-2.9c0-0.3-0.1-0.6-0.4-0.9C77.3,64.1,77.1,64,76.7,64"/>
	<path fill="#1C3E79" d="M107.4,64.2c-0.3-0.3-0.5-0.4-0.9-0.4l-8.6,0c-0.6,0-1-0.1-1.2-0.4c-0.2-0.3-0.3-0.8-0.3-1.6l0-22.2l10,0
		c0.3,0,0.6-0.1,0.9-0.4c0.3-0.3,0.4-0.5,0.4-0.9l0-3c0-0.3-0.1-0.6-0.4-0.9c-0.3-0.3-0.5-0.4-0.9-0.4l-9.9,0l0-18.1
		c-0.1-0.2-0.2-0.4-0.5-0.6c-0.2-0.2-0.5-0.3-0.7-0.3l-5.4,0c-0.3,0-0.6,0.1-0.9,0.4c-0.3,0.3-0.4,0.5-0.4,0.9l0,17.7l-5.3,0
		c-0.3,0-0.6,0.1-0.9,0.4c-0.3,0.2-0.4,0.5-0.4,0.9l0,3c0,0.3,0.1,0.6,0.4,0.9c0.3,0.3,0.5,0.4,0.9,0.4l5.3,0l0,20.6
		c0,1.6,0,3.1,0.1,4.2c0.1,1.2,0.4,2.1,0.9,2.9c0.5,0.7,1.4,1.2,2.7,1.6c1.2,0.3,3,0.5,5.3,0.5l8.9,0c0.3,0,0.6-0.2,0.9-0.5
		c0.3-0.3,0.4-0.6,0.4-1l0-2.9C107.8,64.7,107.7,64.4,107.4,64.2"/>
	<path fill="#E76013" d="M192.8,49.5c0-3.8-0.5-7.5-1.5-11.1c-5.7,0.3-15.7-4.9-25.1-13.4c-6.6-6-11.5-12.4-13.9-17.7
		c-0.6,0-1.1,0-1.7-0.1c-12.1,0-23.1,5.1-30.8,13.2l1.5,0c0.3,0,0.6,0.1,0.8,0.4c0.2,0.3,0.3,0.6,0.3,0.9l0,15.9l16.6,0
		c1.5,0,2.8,0.1,3.8,0.4c1,0.3,1.9,0.7,2.5,1.3c0.6,0.6,1.1,1.5,1.4,2.5c0.3,1,0.4,2.3,0.4,3.9l0,15.7c0,1.6-0.2,2.9-0.4,3.9
		c-0.3,1-0.7,1.9-1.4,2.5c-0.6,0.6-1.5,1.1-2.5,1.3c-1.1,0.3-2.3,0.4-3.8,0.4l-10.5,0c-0.3,0-0.6-0.1-0.8-0.3
		c-0.2-0.2-0.3-0.5-0.3-0.8l0-2.6c0-0.3,0.1-0.6,0.3-0.8c0.2-0.2,0.5-0.3,0.8-0.3l10.2,0c0.5,0,0.9-0.1,1.1-0.3
		c0.2-0.2,0.3-0.7,0.3-1.5l0-18.4c0-0.8-0.1-1.3-0.3-1.5c-0.2-0.2-0.5-0.3-1.1-0.3l-16.3,0l-0.1,25.9c0,0.3-0.1,0.6-0.3,0.8
		c-0.2,0.2-0.5,0.3-0.8,0.3l-4.9,0c-0.3,0-0.6-0.1-0.8-0.3c-0.2-0.2-0.3-0.5-0.3-0.8l0.1-42.2c-4.4,6.6-7,14.6-7,23.2
		c0,23.3,18.8,42.3,42.1,42.3c10.7,0,20.5-4,28-10.5L154,81c-0.3,0-0.6-0.1-0.8-0.3c-0.2-0.2-0.3-0.5-0.3-0.8l0-2.6
		c0-0.3,0.1-0.6,0.3-0.8c0.2-0.2,0.5-0.3,0.8-0.3l24,0l0-6.5l-17,0c-1.5,0-2.8-0.1-3.8-0.4c-1.1-0.3-1.9-0.7-2.5-1.3
		c-0.6-0.6-1.1-1.5-1.4-2.5c-0.3-1-0.4-2.3-0.4-3.9l0-22.8c0-0.3,0.1-0.6,0.3-0.8c0.2-0.2,0.5-0.3,0.8-0.3l4.8,0
		c0.3,0,0.6,0.1,0.8,0.3c0.2,0.2,0.3,0.5,0.3,0.8l0,24.2c0,0.8,0.1,1.3,0.3,1.5c0.2,0.2,0.5,0.3,1.1,0.3l16.7,0l0.1-26
		c0-0.3,0.1-0.6,0.3-0.8c0.2-0.2,0.5-0.3,0.8-0.3l4.9,0c0.3,0,0.6,0.1,0.8,0.3c0.2,0.2,0.3,0.5,0.3,0.8l-0.1,34.8
		C190,66.7,192.8,58.4,192.8,49.5"/>
	<rect x="41.9" y="74" fill="#3C5896" width="1" height="7.8"/>
	<polygon fill="#3C5896" points="45.9,76.3 46.1,78.9 46.1,81.8 45.1,81.8 45.1,74 46.1,74 47.9,79.9 47.9,79.9 47.7,76.8 47.7,74 
		48.7,74 48.7,81.8 47.7,81.8 45.9,75.8 45.9,75.8 	"/>
	<polygon fill="#3C5896" points="53.6,74 53.6,74.9 52.4,74.9 52.4,81.8 51.4,81.8 51.4,74.9 50.2,74.9 50.2,74 	"/>
	<polygon fill="#3C5896" points="57.8,74 57.8,74.9 56.1,74.9 56.1,77.3 57.6,77.3 57.6,78.2 56.1,78.2 56.1,80.9 57.8,80.9 
		57.8,81.8 55,81.8 55,74 	"/>
	<path fill="#3C5896" d="M59.5,74h1.2c0.8,0,1.9,0,1.9,2c0,0.7-0.2,1.9-1.1,2l1.4,3.8H62L60.6,78h0v3.8h-1V74z M61.6,76.2
		c0-0.7-0.1-1.4-0.9-1.3h-0.2v2.6C61.3,77.5,61.6,77,61.6,76.2"/>
	<polygon fill="#3C5896" points="65.6,76.3 65.7,78.9 65.7,81.8 64.7,81.8 64.7,74 65.7,74 67.5,79.9 67.5,79.9 67.3,76.8 67.3,74 
		68.3,74 68.3,81.8 67.3,81.8 65.5,75.8 65.5,75.8 	"/>
	<polygon fill="#3C5896" points="73.2,74 73.2,74.9 71.5,74.9 71.5,77.3 73,77.3 73,78.2 71.5,78.2 71.5,80.9 73.2,80.9 73.2,81.8 
		70.5,81.8 70.5,74 	"/>
	<polygon fill="#3C5896" points="77.7,74 77.7,74.9 76.5,74.9 76.5,81.8 75.5,81.8 75.5,74.9 74.2,74.9 74.2,74 	"/>
	<polygon fill="#3C5896" points="84.9,74 84.9,74.9 83.2,74.9 83.2,77.3 84.7,77.3 84.7,78.2 83.2,78.2 83.2,80.9 84.9,80.9 
		84.9,81.8 82.1,81.8 82.1,74 	"/>
	<polygon fill="#3C5896" points="90.1,74 91,79.9 91,79.9 91,79.4 91.5,76.7 91.9,74 92.9,74 91.4,81.8 90.6,81.8 89,74 	"/>
	<path fill="#3C5896" d="M98.3,77.9c0,1.4,0,4-2,4c-2,0-2-2.6-2-4c0-1.4,0-4,2-4C98.3,73.9,98.3,76.5,98.3,77.9 M95.4,77.9
		c0,1.7,0.1,3,0.9,3s0.9-1.4,0.9-3c0-1.7-0.1-3-0.9-3S95.4,76.2,95.4,77.9"/>
	<path fill="#3C5896" d="M103.3,75.1c-0.2-0.1-0.4-0.2-0.7-0.2c-1.4,0-1.5,2.1-1.5,3.1c0,1,0.1,3,1.5,3c0.2,0,0.4-0.1,0.6-0.2v0.9
		c-0.3,0.2-0.5,0.2-0.8,0.2c-2.1,0-2.4-2.2-2.4-3.9c0-1.6,0.2-4.1,2.3-4.1c0.4,0,0.6,0.1,0.9,0.2V75.1z"/>
	<polygon fill="#3C5896" points="107.8,74 107.8,74.9 106,74.9 106,77.3 107.6,77.3 107.6,78.2 106,78.2 106,80.9 107.8,80.9 
		107.8,81.8 105,81.8 105,74 	"/>
</g>
</svg>
